<svg width="208" height="16" viewBox="0 0 208 16" fill="none" xmlns="http://www.w3.org/2000/svg">
<path d="M1 7.00173L204.588 7.00173L199.708 2.12173C199.318 1.73173 199.318 1.09173 199.708 0.70173C199.8 0.609027 199.91 0.535479 200.031 0.485298C200.152 0.435116 200.282 0.409286 200.413 0.409286C200.544 0.409286 200.673 0.435116 200.794 0.485298C200.915 0.535479 201.025 0.609027 201.118 0.70173L207.708 7.29173C207.8 7.38424 207.874 7.49413 207.924 7.61511C207.974 7.73608 208 7.86576 208 7.99673C208 8.1277 207.974 8.25738 207.924 8.37835C207.874 8.49933 207.8 8.60922 207.708 8.70173L201.128 15.3017C201.035 15.3943 200.925 15.4678 200.804 15.5179C200.683 15.568 200.553 15.5937 200.423 15.5937C200.292 15.5937 200.162 15.568 200.041 15.5179C199.92 15.4678 199.81 15.3943 199.718 15.3017C199.625 15.2091 199.552 15.0992 199.501 14.9783C199.451 14.8573 199.426 14.7277 199.426 14.5967C199.426 14.4658 199.451 14.3361 199.501 14.2152C199.552 14.0942 199.625 13.9843 199.718 13.8917L204.588 9.00173L1 9.00173C0.449997 9.00173 3.07816e-07 8.55173 3.31857e-07 8.00173C3.55899e-07 7.45173 0.449997 7.00173 1 7.00173Z" fill="white"/>
</svg>
