<svg width="25" height="24" viewBox="0 0 25 24" fill="none" xmlns="http://www.w3.org/2000/svg">
<rect x="0.5" width="24" height="24" rx="4" fill="#0FB404"/>
<path d="M16.6347 7.31882C16.8421 7.11207 17.118 6.99776 17.4043 7.00003C17.6906 7.0023 17.9649 7.12096 18.1692 7.33098C18.3736 7.541 18.492 7.82594 18.4996 8.12569C18.5072 8.42543 18.4033 8.71653 18.2098 8.93756L12.3363 16.6305C12.2353 16.7444 12.1134 16.8358 11.9779 16.8993C11.8424 16.9627 11.696 16.9969 11.5476 16.9998C11.3992 17.0027 11.2518 16.9742 11.1141 16.916C10.9765 16.8579 10.8514 16.7712 10.7465 16.6613L6.85139 12.5821C6.74292 12.4762 6.65592 12.3485 6.59558 12.2067C6.53523 12.0649 6.50279 11.9118 6.50017 11.7565C6.49756 11.6013 6.52483 11.4471 6.58035 11.3031C6.63588 11.1591 6.71853 11.0283 6.82337 10.9185C6.92821 10.8087 7.05309 10.7222 7.19056 10.664C7.32803 10.6059 7.47528 10.5773 7.62352 10.5801C7.77176 10.5828 7.91796 10.6168 8.05338 10.68C8.18881 10.7432 8.3107 10.8343 8.41177 10.9479L11.4943 14.1746L16.6067 7.35274C16.6159 7.34087 16.6243 7.32954 16.6347 7.31882Z" fill="white"/>
</svg>
