<svg width="40" height="40" viewBox="0 0 40 40" fill="none" xmlns="http://www.w3.org/2000/svg">
<path fill-rule="evenodd" clip-rule="evenodd" d="M8.82214 8.82141C9.47301 8.17053 10.5283 8.17053 11.1792 8.82141L20.0007 17.6429L28.8221 8.82141C29.473 8.17053 30.5283 8.17053 31.1792 8.82141C31.83 9.47228 31.83 10.5276 31.1792 11.1784L22.3577 19.9999L31.1792 28.8214C31.83 29.4723 31.83 30.5276 31.1792 31.1784C30.5283 31.8293 29.473 31.8293 28.8221 31.1784L20.0007 22.3569L11.1792 31.1784C10.5283 31.8293 9.47301 31.8293 8.82214 31.1784C8.17127 30.5276 8.17127 29.4723 8.82214 28.8214L17.6436 19.9999L8.82214 11.1784C8.17127 10.5276 8.17127 9.47228 8.82214 8.82141Z" fill="#0FB404"/>
</svg>
