<svg width="80" height="80" viewBox="0 0 80 80" fill="none" xmlns="http://www.w3.org/2000/svg">
<circle cx="40" cy="40" r="40" fill="url(#paint0_linear_2474_8721)"/>
<path d="M56.4373 21.7673C57.2617 20.9782 58.3587 20.542 59.4969 20.5507C60.6352 20.5593 61.7255 21.0122 62.5379 21.8137C63.3503 22.6153 63.8213 23.7028 63.8514 24.8467C63.8815 25.9907 63.4683 27.1017 62.6992 27.9453L39.3488 57.3053C38.9473 57.7401 38.4627 58.089 37.924 58.3312C37.3853 58.5734 36.8035 58.7039 36.2135 58.7149C35.6235 58.7259 35.0373 58.6171 34.4901 58.3952C33.9428 58.1732 33.4457 57.8425 33.0284 57.423L17.5435 41.8545C17.1122 41.4505 16.7663 40.9633 16.5265 40.422C16.2866 39.8807 16.1576 39.2964 16.1472 38.7039C16.1368 38.1114 16.2452 37.5228 16.4659 36.9734C16.6867 36.4239 17.0153 35.9247 17.432 35.5057C17.8488 35.0867 18.3453 34.7563 18.8918 34.5344C19.4384 34.3124 20.0237 34.2034 20.6131 34.2139C21.2024 34.2244 21.7836 34.354 22.322 34.5952C22.8604 34.8364 23.345 35.1842 23.7468 35.6177L36.0014 47.9325L56.3261 21.8968C56.3627 21.8515 56.3959 21.8082 56.4373 21.7673Z" fill="white"/>
<defs>
<linearGradient id="paint0_linear_2474_8721" x1="0" y1="0" x2="91.3129" y2="16.1884" gradientUnits="userSpaceOnUse">
<stop stop-color="#00AA81"/>
<stop offset="1" stop-color="#0EB400"/>
</linearGradient>
</defs>
</svg>
