<svg width="176" height="39" viewBox="0 0 176 39" fill="none" xmlns="http://www.w3.org/2000/svg">
<path fill-rule="evenodd" clip-rule="evenodd" d="M118.862 8.10778C120.721 3.75777 125.27 0.657227 130.504 0.657227C137.401 0.657227 142.977 5.97905 142.977 12.5041C142.977 18.0548 138.906 22.7348 133.445 24.0087V38.1415H127.575V24.0404C126.984 23.9083 126.409 23.7342 125.857 23.5179C124.36 27.0573 121.152 29.7268 117.201 30.633V38.1421H111.332V30.6531C105.817 29.4245 101.693 24.748 101.693 19.1216C101.693 12.5966 107.269 7.2748 114.215 7.2748C115.878 7.2748 117.444 7.55246 118.862 8.10778ZM107.612 19.1216C107.612 22.5924 110.595 25.4153 114.264 25.4153C117.59 25.4153 120.329 23.1014 120.868 20.0472C119.351 18.3812 118.373 16.2525 118.079 13.9386C117.003 13.2445 115.683 12.828 114.264 12.828C110.595 12.828 107.612 15.6509 107.612 19.1216ZM123.851 12.5503C123.851 16.0211 126.835 18.844 130.504 18.844C134.172 18.844 137.156 15.9748 137.156 12.5041C137.156 9.03331 134.172 6.21043 130.504 6.21043C126.835 6.21043 123.851 9.07959 123.851 12.5503Z" fill="url(#paint0_linear_2474_5930)"/>
<path d="M13.2558 38.4195C10.7123 38.4195 8.4622 37.9104 6.45671 36.8923C4.45122 35.828 2.88595 34.4397 1.71201 32.6349C0.586974 30.7838 0 28.7476 0 26.4338V7.64545H6.01648V26.0173C6.01648 27.3593 6.35888 28.6088 6.99477 29.6732C7.67957 30.7375 8.56003 31.5705 9.63615 32.1721C10.7123 32.7737 11.9351 33.1439 13.2069 33.1439C14.6254 33.1439 15.8972 32.82 17.0222 32.1721C18.1473 31.5242 19.0277 30.6913 19.6636 29.6732C20.3484 28.6088 20.6908 27.4056 20.6908 26.0173V7.64545H26.4627V26.4338C26.4627 28.7014 25.8758 30.7838 24.7018 32.5886C23.5768 34.3934 22.0115 35.828 20.006 36.8461C18.0984 37.9104 15.7994 38.4195 13.2558 38.4195Z" fill="url(#paint1_linear_2474_5930)"/>
<path fill-rule="evenodd" clip-rule="evenodd" d="M30.8632 38.1416V7.69155H44.2168C46.0756 7.69155 47.6897 8.10804 49.1572 8.94102C50.6735 9.774 51.8475 10.9309 52.7279 12.3655C53.6084 13.8001 54.0486 15.4198 54.0486 17.2246C54.0486 19.0293 53.6084 20.6953 52.7279 22.1762C51.8475 23.6107 50.6246 24.7677 49.1572 25.6469C47.6897 26.5262 46.0267 26.9427 44.2168 26.9427H36.8796V38.1416H30.8632ZM36.8796 21.806H43.8744C44.657 21.806 45.3419 21.6208 45.9288 21.2044C46.5647 20.7879 47.0539 20.2788 47.4452 19.5847C47.8365 18.9368 48.0321 18.1501 48.0321 17.3171C48.0321 16.4841 47.8365 15.7437 47.4452 15.0958C47.0539 14.448 46.5647 13.8926 45.9288 13.5224C45.2929 13.1059 44.6081 12.9208 43.8744 12.9208H36.8796V21.806Z" fill="url(#paint2_linear_2474_5930)"/>
<path d="M56.0045 7.69155L66.032 38.1416H70.3854L77.9391 20.3432L85.7934 38.1416H90.0979L100.174 7.73783H93.9622L88.2881 25.6006C88.1577 26.0943 88.0272 26.5262 87.9113 26.9101C87.8533 27.1021 87.7989 27.282 87.75 27.4517C87.6033 27.9145 87.5055 28.2847 87.4565 28.6549C87.4344 28.8017 87.4022 28.9484 87.369 29.0994C87.3373 29.2441 87.3047 29.3927 87.2792 29.5491C87.1526 29.0202 86.9997 28.5029 86.8207 27.9608C86.6592 27.4413 86.4764 26.9421 86.2863 26.4231L86.286 26.4221C86.1883 26.1553 86.0887 25.8833 85.9891 25.6006L80.7063 12.4581H75.6192L70.1897 25.6006C70.1011 25.9082 69.9946 26.2157 69.881 26.5436L69.8806 26.5447L69.8799 26.5469C69.8058 26.7608 69.7287 26.9834 69.6517 27.2203C69.617 27.3514 69.5797 27.4902 69.5402 27.6367L69.5399 27.6379C69.4123 28.1119 69.263 28.6669 69.1136 29.3028C69.0535 29.5074 68.9935 29.7287 68.9312 29.9662C68.8972 29.7948 68.8605 29.62 68.8201 29.4416C68.7223 28.7937 68.5756 28.0996 68.4288 27.4517C68.2821 26.8038 68.1353 26.2022 67.9397 25.6469L62.2656 7.69155H56.0045Z" fill="url(#paint3_linear_2474_5930)"/>
<path fill-rule="evenodd" clip-rule="evenodd" d="M147.63 38.0491V7.69155H160.543C162.891 7.69155 164.994 8.06176 166.853 8.75591C168.761 9.49634 170.375 10.5144 171.744 11.9027C173.114 13.2448 174.141 14.8644 174.875 16.7155C175.609 18.5666 176 20.649 176 22.8703C176 25.0916 175.609 27.2203 174.875 29.0714C174.19 30.9225 173.163 32.5422 171.793 33.8842C170.424 35.2262 168.81 36.2443 166.902 36.9847C164.994 37.7252 162.891 38.0491 160.543 38.0491H147.63ZM160.347 32.9124H153.695V12.9208H160.396C161.913 12.9208 163.233 13.1522 164.407 13.615C165.581 14.0777 166.559 14.7256 167.391 15.6049C168.223 16.4841 168.858 17.5485 169.299 18.798C169.739 20.0012 169.935 21.3895 169.935 22.9166C169.935 24.4437 169.739 25.832 169.299 27.0815C168.858 28.331 168.223 29.3491 167.391 30.2283C166.559 31.1076 165.532 31.7554 164.358 32.2182C163.184 32.681 161.864 32.9124 160.347 32.9124Z" fill="url(#paint4_linear_2474_5930)"/>
<defs>
<linearGradient id="paint0_linear_2474_5930" x1="0" y1="0.657227" x2="123.134" y2="102.4" gradientUnits="userSpaceOnUse">
<stop stop-color="#00AA81"/>
<stop offset="1" stop-color="#0EB400"/>
</linearGradient>
<linearGradient id="paint1_linear_2474_5930" x1="0" y1="0.657227" x2="123.134" y2="102.4" gradientUnits="userSpaceOnUse">
<stop stop-color="#00AA81"/>
<stop offset="1" stop-color="#0EB400"/>
</linearGradient>
<linearGradient id="paint2_linear_2474_5930" x1="0" y1="0.657227" x2="123.134" y2="102.4" gradientUnits="userSpaceOnUse">
<stop stop-color="#00AA81"/>
<stop offset="1" stop-color="#0EB400"/>
</linearGradient>
<linearGradient id="paint3_linear_2474_5930" x1="0" y1="0.657227" x2="123.134" y2="102.4" gradientUnits="userSpaceOnUse">
<stop stop-color="#00AA81"/>
<stop offset="1" stop-color="#0EB400"/>
</linearGradient>
<linearGradient id="paint4_linear_2474_5930" x1="0" y1="0.657227" x2="123.134" y2="102.4" gradientUnits="userSpaceOnUse">
<stop stop-color="#00AA81"/>
<stop offset="1" stop-color="#0EB400"/>
</linearGradient>
</defs>
</svg>
