<svg width="24" height="24" viewBox="0 0 24 24" fill="none" xmlns="http://www.w3.org/2000/svg">
<path d="M14.9983 19C14.9983 20.6569 13.6552 22 11.9983 22C10.3414 22 8.9983 20.6569 8.9983 19M13.7948 6.23856C14.2303 5.78864 14.4983 5.17562 14.4983 4.5C14.4983 3.11929 13.379 2 11.9983 2C10.6176 2 9.4983 3.11929 9.4983 4.5C9.4983 5.17562 9.7663 5.78864 10.2018 6.23856M2.54512 8.32296C2.53077 6.87161 3.31325 5.51631 4.57733 4.80306M21.4515 8.32296C21.4658 6.87161 20.6833 5.51631 19.4193 4.80306M17.9983 11.2C17.9983 9.82087 17.3662 8.49823 16.2409 7.52304C15.1157 6.54786 13.5896 6 11.9983 6C10.407 6 8.88087 6.54786 7.75566 7.52304C6.63044 8.49823 5.9983 9.82087 5.9983 11.2C5.9983 13.4818 5.43243 15.1506 4.72636 16.3447C3.92163 17.7056 3.51927 18.3861 3.53516 18.5486C3.55334 18.7346 3.58681 18.7933 3.73764 18.9036C3.86947 19 4.53181 19 5.85648 19H18.1401C19.4648 19 20.1271 19 20.259 18.9036C20.4098 18.7933 20.4433 18.7346 20.4614 18.5486C20.4773 18.3861 20.075 17.7056 19.2702 16.3447C18.5642 15.1506 17.9983 13.4818 17.9983 11.2Z" stroke="#ffffff" stroke-width="2" stroke-linecap="round" stroke-linejoin="round"/>
</svg>
