<svg width="24" height="24" viewBox="0 0 24 24" fill="none" xmlns="http://www.w3.org/2000/svg">
<path d="M13.998 2.26953V6.40007C13.998 6.96012 13.998 7.24015 14.107 7.45406C14.2029 7.64222 14.3559 7.7952 14.5441 7.89108C14.758 8.00007 15.038 8.00007 15.598 8.00007H19.7286M15.998 13H7.99805M15.998 17H7.99805M9.99805 9H7.99805M13.998 2H8.79805C7.11789 2 6.27781 2 5.63608 2.32698C5.07159 2.6146 4.61265 3.07354 4.32503 3.63803C3.99805 4.27976 3.99805 5.11984 3.99805 6.8V17.2C3.99805 18.8802 3.99805 19.7202 4.32503 20.362C4.61265 20.9265 5.07159 21.3854 5.63608 21.673C6.27781 22 7.11789 22 8.79805 22H15.198C16.8782 22 17.7183 22 18.36 21.673C18.9245 21.3854 19.3834 20.9265 19.6711 20.362C19.998 19.7202 19.998 18.8802 19.998 17.2V8L13.998 2Z" stroke="#4A574C" stroke-width="2" stroke-linecap="round" stroke-linejoin="round"/>
</svg>
