<svg width="14" height="14" viewBox="0 0 14 14" fill="none" xmlns="http://www.w3.org/2000/svg">
<path d="M12.3333 6.16655H3.02498L7.09164 2.09989C7.41665 1.77489 7.41665 1.24155 7.09164 0.916555C7.01455 0.839302 6.92298 0.778012 6.82217 0.736194C6.72135 0.694376 6.61329 0.672852 6.50415 0.672852C6.395 0.672852 6.28694 0.694376 6.18612 0.736194C6.08531 0.778012 5.99374 0.839302 5.91665 0.916555L0.424978 6.40822C0.347725 6.48532 0.286435 6.57689 0.244617 6.6777C0.2028 6.77851 0.181274 6.88658 0.181274 6.99572C0.181274 7.10486 0.2028 7.21293 0.244617 7.31374C0.286435 7.41455 0.347725 7.50613 0.424978 7.58322L5.91665 13.0749C5.9938 13.152 6.08539 13.2132 6.18619 13.255C6.287 13.2967 6.39504 13.3182 6.50415 13.3182C6.61325 13.3182 6.72129 13.2967 6.8221 13.255C6.9229 13.2132 7.01449 13.152 7.09164 13.0749C7.1688 12.9977 7.23 12.9061 7.27175 12.8053C7.3135 12.7045 7.335 12.5965 7.335 12.4874C7.335 12.3783 7.3135 12.2702 7.27175 12.1694C7.23 12.0686 7.1688 11.977 7.09164 11.8999L3.02498 7.83322H12.3333C12.7916 7.83322 13.1666 7.45822 13.1666 6.99989C13.1666 6.54155 12.7916 6.16655 12.3333 6.16655Z" fill="black"/>
</svg>
