<svg width="208" height="24" viewBox="0 0 208 24" fill="none" xmlns="http://www.w3.org/2000/svg">
<g clip-path="url(#clip0_2233_23887)">
<g clip-path="url(#clip1_2233_23887)">
<g clip-path="url(#clip2_2233_23887)">
<path d="M207 11.0017L3.41244 11.0017L8.29244 6.12173C8.68244 5.73173 8.68244 5.09173 8.29244 4.70173C8.19993 4.60903 8.09004 4.53548 7.96907 4.4853C7.84809 4.43512 7.71841 4.40929 7.58744 4.40929C7.45648 4.40929 7.32679 4.43512 7.20582 4.4853C7.08485 4.53548 6.97496 4.60903 6.88244 4.70173L0.292444 11.2917C0.19974 11.3842 0.126193 11.4941 0.0760113 11.6151C0.0258299 11.7361 -3.37801e-07 11.8658 -3.32076e-07 11.9967C-3.26351e-07 12.1277 0.0258299 12.2574 0.0760113 12.3784C0.126193 12.4993 0.19974 12.6092 0.292444 12.7017L6.87244 19.3017C6.96503 19.3943 7.07494 19.4678 7.1959 19.5179C7.31686 19.568 7.44651 19.5937 7.57744 19.5937C7.70837 19.5937 7.83802 19.568 7.95899 19.5179C8.07995 19.4678 8.18986 19.3943 8.28244 19.3017C8.37503 19.2091 8.44847 19.0992 8.49857 18.9783C8.54868 18.8573 8.57446 18.7277 8.57446 18.5967C8.57446 18.4658 8.54868 18.3361 8.49857 18.2152C8.44847 18.0942 8.37503 17.9843 8.28244 17.8917L3.41244 13.0017L207 13.0017C207.55 13.0017 208 12.5517 208 12.0017C208 11.4517 207.55 11.0017 207 11.0017Z" fill="white"/>
</g>
</g>
</g>
<defs>
<clipPath id="clip0_2233_23887">
<rect width="208" height="24" fill="white"/>
</clipPath>
<clipPath id="clip1_2233_23887">
<rect width="24" height="208" fill="white" transform="translate(0 24) rotate(-90)"/>
</clipPath>
<clipPath id="clip2_2233_23887">
<rect width="24" height="208" fill="white" transform="translate(0 24) rotate(-90)"/>
</clipPath>
</defs>
</svg>
