<svg width="24" height="24" viewBox="0 0 24 24" fill="none" xmlns="http://www.w3.org/2000/svg">
<path d="M20.002 9.5V7.2C20.002 6.0799 20.002 5.51984 19.784 5.09202C19.5922 4.7157 19.2863 4.40974 18.9099 4.21799C18.4821 4 17.922 4 16.802 4H5.20195C4.08185 4 3.5218 4 3.09397 4.21799C2.71765 4.40973 2.41169 4.71569 2.21994 5.09202C2.00195 5.51984 2.00195 6.0799 2.00195 7.2V16.8C2.00195 17.9201 2.00195 18.4802 2.21994 18.908C2.41169 19.2843 2.71765 19.5903 3.09397 19.782C3.5218 20 4.08185 20 5.20195 20L16.802 20C17.9221 20 18.4821 20 18.9099 19.782C19.2863 19.5903 19.5922 19.2843 19.784 18.908C20.002 18.4802 20.002 17.9201 20.002 16.8V14.5M15.002 12C15.002 11.5353 15.002 11.303 15.0404 11.1098C15.1982 10.3164 15.8184 9.69624 16.6118 9.53843C16.805 9.5 17.0373 9.5 17.502 9.5H19.502C19.9666 9.5 20.1989 9.5 20.3921 9.53843C21.1855 9.69624 21.8057 10.3164 21.9635 11.1098C22.002 11.303 22.002 11.5353 22.002 12C22.002 12.4647 22.002 12.697 21.9635 12.8902C21.8057 13.6836 21.1855 14.3038 20.3921 14.4616C20.1989 14.5 19.9666 14.5 19.502 14.5H17.502C17.0373 14.5 16.805 14.5 16.6118 14.4616C15.8184 14.3038 15.1982 13.6836 15.0404 12.8902C15.002 12.697 15.002 12.4647 15.002 12Z" stroke="#ffffff" stroke-width="2" stroke-linecap="round" stroke-linejoin="round"/>
</svg>
