<svg width="24" height="24" viewBox="0 0 24 24" fill="none" xmlns="http://www.w3.org/2000/svg">
<path d="M12.002 15C13.6588 15 15.002 13.6569 15.002 12C15.002 10.3431 13.6588 9 12.002 9C10.3451 9 9.00195 10.3431 9.00195 12C9.00195 13.6569 10.3451 15 12.002 15Z" stroke="#4A574C" stroke-width="2" stroke-linecap="round" stroke-linejoin="round"/>
<path d="M18.7292 14.7273C18.6082 15.0015 18.5721 15.3056 18.6256 15.6005C18.6791 15.8954 18.8196 16.1676 19.0292 16.3818L19.0838 16.4364C19.2528 16.6052 19.3869 16.8057 19.4784 17.0265C19.5699 17.2472 19.617 17.4838 19.617 17.7227C19.617 17.9617 19.5699 18.1983 19.4784 18.419C19.3869 18.6397 19.2528 18.8402 19.0838 19.0091C18.9149 19.1781 18.7144 19.3122 18.4937 19.4037C18.2729 19.4952 18.0363 19.5423 17.7974 19.5423C17.5585 19.5423 17.3219 19.4952 17.1012 19.4037C16.8804 19.3122 16.6799 19.1781 16.511 19.0091L16.4565 18.9545C16.2422 18.745 15.9701 18.6044 15.6752 18.5509C15.3803 18.4974 15.0762 18.5335 14.802 18.6545C14.5331 18.7698 14.3038 18.9611 14.1422 19.205C13.9807 19.4489 13.894 19.7347 13.8929 20.0273V20.1818C13.8929 20.664 13.7013 21.1265 13.3603 21.4675C13.0194 21.8084 12.5569 22 12.0747 22C11.5925 22 11.13 21.8084 10.789 21.4675C10.4481 21.1265 10.2565 20.664 10.2565 20.1818V20.1C10.2495 19.7991 10.1521 19.5073 9.97696 19.2625C9.80187 19.0176 9.55717 18.8312 9.27468 18.7273C9.00048 18.6063 8.69632 18.5702 8.40142 18.6236C8.10651 18.6771 7.83439 18.8177 7.62013 19.0273L7.56559 19.0818C7.39673 19.2509 7.19621 19.385 6.97548 19.4765C6.75476 19.568 6.51816 19.6151 6.27923 19.6151C6.04029 19.6151 5.80369 19.568 5.58297 19.4765C5.36225 19.385 5.16172 19.2509 4.99286 19.0818C4.82381 18.913 4.68971 18.7124 4.59821 18.4917C4.50671 18.271 4.45961 18.0344 4.45961 17.7955C4.45961 17.5565 4.50671 17.3199 4.59821 17.0992C4.68971 16.8785 4.82381 16.678 4.99286 16.5091L5.04741 16.4545C5.25699 16.2403 5.39758 15.9682 5.45105 15.6733C5.50452 15.3784 5.46842 15.0742 5.34741 14.8C5.23217 14.5311 5.04082 14.3018 4.79692 14.1403C4.55302 13.9788 4.26721 13.8921 3.97468 13.8909H3.82013C3.33792 13.8909 2.87546 13.6994 2.53449 13.3584C2.19351 13.0174 2.00195 12.5549 2.00195 12.0727C2.00195 11.5905 2.19351 11.1281 2.53449 10.7871C2.87546 10.4461 3.33792 10.2545 3.82013 10.2545H3.90195C4.20286 10.2475 4.49468 10.1501 4.7395 9.97501C4.98431 9.79991 5.17079 9.55521 5.27468 9.27273C5.39569 8.99853 5.43179 8.69437 5.37832 8.39947C5.32485 8.10456 5.18426 7.83244 4.97468 7.61818L4.92014 7.56364C4.75109 7.39478 4.61698 7.19425 4.52548 6.97353C4.43398 6.7528 4.38689 6.51621 4.38689 6.27727C4.38689 6.03834 4.43398 5.80174 4.52548 5.58102C4.61698 5.36029 4.75109 5.15977 4.92014 4.99091C5.089 4.82186 5.28952 4.68775 5.51024 4.59626C5.73097 4.50476 5.96756 4.45766 6.2065 4.45766C6.44544 4.45766 6.68203 4.50476 6.90275 4.59626C7.12348 4.68775 7.324 4.82186 7.49286 4.99091L7.54741 5.04545C7.76166 5.25503 8.03379 5.39562 8.32869 5.4491C8.6236 5.50257 8.92776 5.46647 9.20195 5.34545H9.27468C9.54356 5.23022 9.77288 5.03887 9.9344 4.79497C10.0959 4.55107 10.1826 4.26526 10.1838 3.97273V3.81818C10.1838 3.33597 10.3753 2.87351 10.7163 2.53253C11.0573 2.19156 11.5197 2 12.002 2C12.4842 2 12.9466 2.19156 13.2876 2.53253C13.6286 2.87351 13.8201 3.33597 13.8201 3.81818V3.9C13.8213 4.19253 13.908 4.47834 14.0695 4.72224C14.231 4.96614 14.4603 5.15749 14.7292 5.27273C15.0034 5.39374 15.3076 5.42984 15.6025 5.37637C15.8974 5.3229 16.1695 5.18231 16.3838 4.97273L16.4383 4.91818C16.6072 4.74913 16.8077 4.61503 17.0284 4.52353C17.2491 4.43203 17.4857 4.38493 17.7247 4.38493C17.9636 4.38493 18.2002 4.43203 18.4209 4.52353C18.6417 4.61503 18.8422 4.74913 19.011 4.91818C19.1801 5.08704 19.3142 5.28757 19.4057 5.50829C19.4972 5.72901 19.5443 5.96561 19.5443 6.20455C19.5443 6.44348 19.4972 6.68008 19.4057 6.9008C19.3142 7.12152 19.1801 7.32205 19.011 7.49091L18.9565 7.54545C18.7469 7.75971 18.6063 8.03183 18.5529 8.32674C18.4994 8.62164 18.5355 8.9258 18.6565 9.2V9.27273C18.7717 9.54161 18.9631 9.77093 19.207 9.93245C19.4509 10.094 19.7367 10.1807 20.0292 10.1818H20.1838C20.666 10.1818 21.1284 10.3734 21.4694 10.7144C21.8104 11.0553 22.002 11.5178 22.002 12C22.002 12.4822 21.8104 12.9447 21.4694 13.2856C21.1284 13.6266 20.666 13.8182 20.1838 13.8182H20.102C19.8094 13.8193 19.5236 13.906 19.2797 14.0676C19.0358 14.2291 18.8445 14.4584 18.7292 14.7273Z" stroke="#ffffff" stroke-width="2" stroke-linecap="round" stroke-linejoin="round"/>
</svg>
