<svg width="24" height="24" viewBox="0 0 24 24" fill="none" xmlns="http://www.w3.org/2000/svg">
<path d="M16.002 7C16.002 6.07003 16.002 5.60504 15.8997 5.22354C15.6223 4.18827 14.8137 3.37962 13.7784 3.10222C13.3969 3 12.9319 3 12.002 3C11.072 3 10.607 3 10.2255 3.10222C9.19022 3.37962 8.38158 4.18827 8.10418 5.22354C8.00195 5.60504 8.00195 6.07003 8.00195 7M5.20195 21H18.802C19.9221 21 20.4821 21 20.9099 20.782C21.2863 20.5903 21.5922 20.2843 21.784 19.908C22.002 19.4802 22.002 18.9201 22.002 17.8V10.2C22.002 9.07989 22.002 8.51984 21.784 8.09202C21.5922 7.71569 21.2863 7.40973 20.9099 7.21799C20.4821 7 19.9221 7 18.802 7H5.20195C4.08185 7 3.5218 7 3.09397 7.21799C2.71765 7.40973 2.41169 7.71569 2.21994 8.09202C2.00195 8.51984 2.00195 9.07989 2.00195 10.2V17.8C2.00195 18.9201 2.00195 19.4802 2.21994 19.908C2.41169 20.2843 2.71765 20.5903 3.09397 20.782C3.5218 21 4.08185 21 5.20195 21Z" stroke="#4A574C" stroke-width="2" stroke-linecap="round" stroke-linejoin="round"/>
</svg>
