<svg width="24" height="24" viewBox="0 0 24 24" fill="none" xmlns="http://www.w3.org/2000/svg">
<path d="M11.998 15.0002L8.99805 12.0002M11.998 15.0002C13.3949 14.469 14.7349 13.799 15.998 13.0002M11.998 15.0002V20.0002C11.998 20.0002 15.028 19.4502 15.998 18.0002C17.078 16.3802 15.998 13.0002 15.998 13.0002M8.99805 12.0002C9.53019 10.6197 10.2003 9.29631 10.998 8.05025C12.1632 6.18723 13.7857 4.6533 15.711 3.59434C17.6364 2.53538 19.8007 1.98662 21.998 2.00025C21.998 4.72025 21.218 9.50025 15.998 13.0002M8.99805 12.0002H3.99805C3.99805 12.0002 4.54805 8.97025 5.99805 8.00025C7.61805 6.92025 10.998 8.00025 10.998 8.00025M4.49805 16.5002C2.99805 17.7602 2.49805 21.5002 2.49805 21.5002C2.49805 21.5002 6.23805 21.0002 7.49805 19.5002C8.20805 18.6602 8.19805 17.3702 7.40805 16.5902C7.01935 16.2193 6.50734 16.0049 5.97027 15.9883C5.43321 15.9717 4.90892 16.154 4.49805 16.5002Z" stroke="#4A574C" stroke-width="2" stroke-linecap="round" stroke-linejoin="round"/>
</svg>
